<svg width="141" height="32" viewBox="0 0 141 32" fill="none" xmlns="http://www.w3.org/2000/svg">
<path d="M116.656 12.71H113.152V24.1962H116.656V12.71Z" fill="white"/>
<path d="M41.9453 9.7526C40.9081 8.91981 39.3622 8.50342 37.1946 8.50342C35.0947 8.50342 33.5291 8.64222 32.4438 8.82634V24.1961H35.9256V18.6498C36.2478 18.6725 36.6632 18.7178 37.1465 18.7178C39.1983 18.7178 40.9731 18.1853 42.1742 17.0551C43.0955 16.1996 43.6042 14.9051 43.6042 13.3557C43.6042 11.8317 42.9344 10.5372 41.9453 9.7526ZM37.1013 15.9928C36.5954 15.9928 36.18 15.9702 35.9256 15.9249V11.2794C36.18 11.2341 36.6406 11.1632 37.333 11.1632C39.1559 11.1632 40.1224 12.0187 40.1224 13.4746C40.1224 15.0439 38.9694 15.9928 37.1013 15.9928Z" fill="white"/>
<path d="M47.7135 13.7182C46.6141 14.6133 45.5176 15.9532 45.5176 17.6159V24.1961H49.022V18.4657C49.022 18.1881 49.0446 17.9105 49.0898 17.6811C49.3215 16.5962 50.1976 15.9022 51.4892 15.9022C51.882 15.9022 52.1816 15.9475 52.4359 16.0183V12.6872C52.1816 12.6418 52.0205 12.6418 51.6983 12.6418C50.6159 12.6418 48.81 12.8231 47.7135 13.7182Z" fill="white"/>
<path d="M59.4698 12.6418C56.1491 12.6418 53.4502 14.7465 53.4502 18.5592C53.4502 22.2586 55.9852 24.4538 59.1929 24.4538C62.0049 24.4538 65.2351 22.7656 65.2351 18.5365C65.2351 14.8824 62.8583 12.6418 59.4698 12.6418ZM59.3568 21.9328C59.354 21.9328 59.354 21.9328 59.3568 21.9328C59.3511 21.9328 59.3455 21.9328 59.3426 21.9328C57.4689 21.9243 56.6154 20.3805 56.6154 18.5818C56.6154 16.9899 57.2768 15.1487 59.3426 15.1402C59.3455 15.1402 59.3511 15.1402 59.354 15.1402C61.4312 15.1402 62.067 16.9672 62.067 18.5847C62.0699 20.406 61.2107 21.9328 59.3568 21.9328Z" fill="white"/>
<path d="M126.574 19.6215C126.574 19.9444 126.528 20.1767 126.458 20.3835C126.226 20.9614 125.649 21.6072 124.705 21.6072C123.437 21.6072 122.953 20.5676 122.953 18.9729V12.71H119.426V19.5281C119.426 23.1113 122.504 24.4511 124.765 24.4511C125.663 24.4511 127.144 24.2472 128.165 23.5702C129.4 22.7516 130.103 21.3777 130.103 20.5676V12.71H126.576V19.6215H126.574Z" fill="white"/>
<path d="M137.734 17.2874C136.349 16.803 135.911 16.5255 135.911 15.9929C135.911 15.4151 136.394 15.0695 137.248 15.0695C138.217 15.0695 139.184 15.4406 139.692 15.7182L140.314 13.2906C139.622 12.945 138.446 12.6448 137.132 12.6448C134.342 12.6448 132.542 14.2395 132.542 16.3668C132.52 17.684 133.418 18.9558 135.747 19.7405C137.061 20.1795 137.409 20.4571 137.409 21.035C137.409 21.6128 136.971 21.9839 135.911 21.9839C134.874 21.9839 133.537 21.5222 132.89 21.1284L132.268 23.6466C133.122 24.1084 134.436 24.4568 135.911 24.4568C139.138 24.4568 140.8 22.8847 140.8 20.7829C140.778 19.1116 139.879 18.0267 137.734 17.2874Z" fill="white"/>
<path d="M92.284 12.6418C88.3642 12.6418 86.5894 15.8087 86.5894 18.6753C86.5894 22.2104 88.7796 24.4538 92.609 24.4538C94.1323 24.4538 95.5368 24.1989 96.6899 23.7372L96.2292 21.3578C95.2825 21.658 94.316 21.8195 93.1177 21.8195C91.4814 21.8195 90.0514 21.1255 89.9355 19.6696H97.1986C97.2438 19.4146 97.3145 18.8849 97.3145 18.2816C97.3088 15.483 95.9269 12.6418 92.284 12.6418ZM89.9072 17.2618C90.0005 16.3129 90.5996 14.9731 92.0748 14.9731C93.6886 14.9731 94.0588 16.4064 94.0588 17.2618H89.9072Z" fill="white"/>
<path d="M79.2839 12.656C77.9924 12.656 76.8139 13.146 75.9152 13.9505C75.0052 13.1489 73.8154 12.656 72.5125 12.656C69.6666 12.656 67.3521 14.9759 67.3521 17.8284V24.1961H70.8508V17.8284C70.8508 16.9106 71.5969 16.1628 72.5125 16.1628C73.4282 16.1628 74.1743 16.9106 74.1743 17.8284V24.1961H77.673V17.8284C77.673 16.9106 78.3965 16.1628 79.2839 16.1628C80.1713 16.1628 80.8948 16.9106 80.8948 17.8284V24.1961H84.3964V17.8284C84.3964 14.9759 82.1016 12.656 79.2839 12.656Z" fill="white"/>
<path d="M106.83 7.54883V12.7098V13.265C106.064 12.8543 105.151 12.5994 104.233 12.5994C101.141 12.5994 98.623 15.2309 98.623 18.4657C98.623 21.7005 101.138 24.332 104.233 24.332C105.151 24.332 106.064 24.0629 106.83 23.6522V24.1989H110.337V12.8855V12.7098V7.54883H106.83ZM104.233 21.692C102.642 21.692 101.347 20.2446 101.347 18.4657C101.347 16.6868 102.642 15.2394 104.233 15.2394C105.824 15.2394 107.118 16.0693 107.118 18.4657C107.118 20.8621 105.824 21.692 104.233 21.692Z" fill="white"/>
<path d="M116.835 7.54883H113.192V11.387H116.835V7.54883Z" fill="white"/>
<path d="M6.99471 25.5275C7.92808 25.5275 8.68473 24.7691 8.68473 23.8336C8.68473 22.898 7.92808 22.1396 6.99471 22.1396C6.06133 22.1396 5.30469 22.898 5.30469 23.8336C5.30469 24.7691 6.06133 25.5275 6.99471 25.5275Z" fill="white"/>
<path d="M18.0363 14.5794C18.0363 14.5794 19.7291 18.3213 16.236 22.3833C14.5319 24.3661 14.0062 27.2865 13.9667 27.9635C11.4825 22.8308 16.595 17.9276 16.595 11.2143C16.5921 3.99681 10.0327 0 10.0327 0C10.0327 10.8291 0 12.1179 0 20.6894C0 29.2609 5.14353 31.9972 5.14353 31.9972C5.14353 31.9972 0 21.0548 10.191 13.7495C10.191 13.7495 7.94139 25.7031 14.221 31.9972C14.221 29.1476 15.8489 27.3659 18.1069 25.975C18.8954 28.4621 17.4004 31.9972 17.4004 31.9972C18.788 31.6233 19.7602 30.1645 20.7804 27.7568C22.3348 24.0942 21.1252 17.6755 18.0363 14.5794ZM18.4828 25.0318C17.8215 25.0318 17.2874 24.4964 17.2874 23.8336C17.2874 23.1708 17.8215 22.6354 18.4828 22.6354C19.1441 22.6354 19.6783 23.1708 19.6783 23.8336C19.6783 24.4936 19.1441 25.0318 18.4828 25.0318Z" fill="white"/>
</svg>
